# AST/ASF file generated using VICON BodyLanguage
# -----------------------------------------------
:version 1.10
:name VICON
:units
  mass 1.0
  length 0.45
  angle deg
:documentation
   .ast/.asf automatically generated from VICON data using
   VICON BodyBuilder and BodyLanguage model FoxedUp or BRILLIANT.MOD
:root
   order TX TY TZ RX RY RZ
   axis XYZ
   position 0 0 0  
   orientation 0 0 0 
:bonedata
  begin
     id 1 
     name lhipjoint
     direction 0.576517 -0.752066 0.319413 
     length 2.45433 
     axis 0 0 0  XYZ
  end
  begin
     id 2 
     name lfemur
     direction 0.34202 -0.939693 0  
     length 7.54459  
     axis 0 0 20  XYZ
    dof rx ry rz
    limits (-160.0 20.0)
           (-70.0 70.0)
           (-60.0 70.0)
  end
  begin
     id 3 
     name ltibia
     direction 0.34202 -0.939693 0   
     length 7.73986   
     axis 0 0 20   XYZ
    dof rx
    limits (-10.0 170.0)
  end
  begin
     id 4 
     name lfoot
     direction 0.090693 -0.249177 0.964202   
     length 2.28437   
     axis -90 7.62852e-016 20   XYZ
    dof rx rz
    limits (-45.0 90.0)
           (-70.0 20.0)
  end
  begin
     id 5 
     name ltoes
     direction 1.5356e-011 -4.21928e-011 1   
     length 1.14243   
     axis -90 7.62852e-016 20   XYZ
    dof rx
    limits (-90.0 20.0)
  end
  begin
     id 6 
     name rhipjoint
     direction -0.573937 -0.753736 0.320122   
     length 2.44889  
     axis 0 0 0  XYZ 
  end
  begin
     id 7 
     name rfemur
     direction -0.34202 -0.939693 0   
     length 7.50166   
     axis 0 0 -20   XYZ
    dof rx ry rz
    limits (-160.0 20.0)
           (-70.0 70.0)
           (-70.0 60.0)
  end
  begin
     id 8 
     name rtibia
     direction -0.34202 -0.939693 0   
     length 7.54266   
     axis 0 0 -20   XYZ
    dof rx
    limits (-10.0 170.0)
 end
 begin
     id 9 
     name rfoot
     direction -0.114017 -0.31326 0.942798   
     length 2.34212  
     axis -90 -7.62852e-016 -20   XYZ
    dof rx rz
    limits (-45.0 90.0)
           (-20.0 70.0)
  end
  begin
     id 10 
     name rtoes
     direction -1.53557e-011 -4.21867e-011 1   
     length 1.16246   
     axis -90 -7.62852e-016 -20   XYZ
    dof rx
    limits (-90.0 20.0)
  end
  begin
     id 11 
     name lowerback
     direction -0.0228371 0.999155 -0.034167   
     length 2.0537   
     axis 0 0 0   XYZ
    dof rx ry rz
    limits (-20.0 45.0)
           (-30.0 30.0)
           (-30.0 30.0)
  end
  begin
     id 12 
     name upperback
     direction 0.0198981 0.999794 0.00389455   
     length 2.05302   
     axis 0 0 0   XYZ
    dof rx ry rz
    limits (-20.0 45.0)
           (-30.0 30.0)
           (-30.0 30.0)
  end
  begin
     id 13 
     name thorax
     direction 0.0304566 0.99935 0.0192987   
     length 2.05315   
     axis 0 0 0   XYZ
    dof rx ry rz
    limits (-20.0 45.0)
           (-30.0 30.0)
           (-30.0 30.0)
  end
  begin
     id 14 
     name lowerneck
     direction -0.0196762 0.99417 0.106017   
     length 1.82056   
     axis 0 0 0   XYZ
    dof rx ry rz
    limits (-20.0 45.0)
           (-30.0 30.0)
           (-30.0 30.0)
  end
  begin
     id 15 
     name upperneck
     direction 0.00517787 0.9802 -0.197944   
     length 1.83835   
     axis 0 0 0   XYZ
    dof rx ry rz
    limits (-20.0 45.0)
           (-30.0 30.0)
           (-30.0 30.0)
  end
  begin
     id 16
     name head
     direction 0.00211419 0.996945 -0.078081  
     length 1.85629  
     axis 0 0 0   XYZ
    dof rx ry rz
    limits (-20.0 45.0)
           (-30.0 30.0)
           (-30.0 30.0)
  end
  begin
     id 17 
     name lclavicle
     direction 0.930001 0.365811 -0.0357824  
     length 3.81961  
     axis 0 0 0   XYZ
    dof ry rz
    limits (-20.0 10.0)
           (0.0 20.0)
  end
  begin
     id 18 
     name lhumerus
     direction 1 -4.48968e-011 -3.06644e-027   
     length 5.14507   
     axis 180 -30 -90   XYZ
    dof rx ry rz
    limits (-60.0 90.0)
           (-90.0 90.0)
           (-90.0 90.0)
  end
  begin
     id 19
     name lradius
     direction 1 -4.48965e-011 9.06925e-028   
     length 3.50646   
     axis 180 -30 -90   XYZ
    dof rx
    limits (-10.0 170.0)
  end
  begin
     id 20
     name lwrist
     direction 1 -4.48957e-011 1.03922e-027   
     length 1.75323   
     axis -2.56395e-016 90 90   XYZ
    dof ry
    limits (-180.0 0.0)
 end
  begin
     id 21 
     name lhand
     direction 1 -4.48967e-011 2.08017e-027   
     length 0.629969   
     axis -1.32723e-015 90 90   XYZ
    dof rx rz
    limits (-90.0 90.0)
           (-45.0 45.0)
  end
  begin
     id 22 
     name lfingers
     direction 1 -4.49089e-011 4.20095e-027   
     length 0.507897   
     axis -2.6545e-015 90 90   XYZ
    dof rx
    limits (0.0 90.0)
  end
  begin
     id 23
     name lthumb
     direction 0.707107 -6.35001e-011 0.707107   
     length 0.729241   
     axis -90 45 5.05613e-014   XYZ
    dof rx rz
    limits (-45.0 45.0)
           (-45.0 45.0)
  end
  begin
     id 24 
     name rclavicle
     direction -0.881882 0.464123 -0.0829113   
     length 3.47515  
     axis 0 0 0   XYZ 
    dof ry rz
    limits (-10.0 20.0)
           (-20.0 0.0)
  end
  begin
     id 25 
     name rhumerus
     direction -1 -4.48961e-011 -1.55672e-027  
     length 5.232   
     axis 180 30 90   XYZ
    dof rx ry rz
    limits (-90.0 60.0)
           (-90.0 90.0)
           (-90.0 90.0)
  end
  begin
     id 26 
     name rradius
     direction -1 -4.48963e-011 6.18178e-029   
     length 3.65641   
     axis 180 30 90   XYZ
    dof rx
    limits (-10.0 170.0)
  end
  begin
     id 27 
     name rwrist
     direction -1 -4.48982e-011 1.04136e-027   
     length 1.8282   
     axis -2.56395e-016 -90 -90   XYZ
    dof ry
    limits (-180.0 0.0)
  end
  begin
     id 28
     name rhand
     direction -1 -4.48929e-011 2.07378e-027   
     length 0.656807   
     axis -1.32723e-015 -90 -90   XYZ
    dof rx rz
    limits (-90.0 90.0)
           (-45.0 45.0)
  end
  begin
     id 29
     name rfingers
     direction -1 -4.489e-011 4.13816e-027   
     length 0.529535   
     axis -2.6545e-015 -90 -90   XYZ
    dof rx
    limits (0.0 90.0)
  end
  begin
     id 30
     name rthumb
     direction -0.707107 -6.34843e-011 0.707107   
     length 0.760309   
     axis -90 -45 -5.05613e-014   XYZ
    dof rx rz
    limits (-45.0 45.0)
           (-45.0 45.0)
  end
:hierarchy
  begin
    root lhipjoint rhipjoint lowerback
    lhipjoint lfemur
    lfemur ltibia
    ltibia lfoot
    lfoot ltoes
    rhipjoint rfemur
    rfemur rtibia
    rtibia rfoot
    rfoot rtoes
    lowerback upperback
    upperback thorax
    thorax lowerneck lclavicle rclavicle
    lowerneck upperneck
    upperneck head
    lclavicle lhumerus
    lhumerus lradius
    lradius lwrist
    lwrist lhand lthumb
    lhand lfingers
    rclavicle rhumerus
    rhumerus rradius
    rradius rwrist
    rwrist rhand rthumb
    rhand rfingers
  end

#!OML:ASF H:\ManfredETheater\Project 1\Capture day 1\Session 1\subject.ASF
:FULLY-SPECIFIED
:DEGREES
31
root 1.67655 17.1624 34.1402 -175.367 -5.51291 178.809
lowerback -0.657861 -0.787032 -2.90999
upperback -4.37062 -1.2509 1.31413
thorax -4.05164 -0.574135 3.02965
lowerneck -19.5822 -1.16638 -3.10297
upperneck 23.9976 -1.45725 0.774209
head 11.0378 -1.08529 0.535877
rclavicle 1.08586e-014 -3.97569e-016
rhumerus -36.5407 -6.82725 -81.6828
rradius 29.2597
rwrist 2.95399
rhand -18.6162 -11.9768
rfingers 7.12502
rthumb 7.67559 -41.8175
lclavicle 1.08586e-014 -3.97569e-016
lhumerus -33.7023 8.13795 86.065
lradius 25.3686
lwrist -19.9005
lhand -10.5555 8.79101
lfingers 7.12502
lthumb 15.4487 38.1937
rfemur -12.5629 -0.550778 16.3561
rtibia 33.4778
rfoot -21.5447 -14.056
rtoes 6.1099
lfemur -15.595 -4.95529 -18.8991
ltibia 35.3454
lfoot -21.1394 1.83972
ltoes 0.42234
32
root 1.6793 17.1626 34.1423 -175.358 -5.53204 178.804
lowerback -0.624493 -0.812922 -2.94375
upperback -4.39268 -1.28833 1.31575
thorax -4.09034 -0.591007 3.05244
lowerneck -19.5771 -1.16607 -3.10167
upperneck 23.9762 -1.46249 0.799083
head 11.0291 -1.08361 0.544086
rclavicle 1.15047e-014 -3.57812e-015
rhumerus -36.5562 -6.83578 -81.67
rradius 29.2577
rwrist 2.95333
rhand -18.5999 -11.9706
rfingers 7.12502
rthumb 7.69135 -41.8107
lclavicle 1.15047e-014 -3.57812e-015
lhumerus -33.7047 8.14676 86.0425
lradius 25.3531
lwrist -19.9267
lhand -10.5445 8.79428
lfingers 7.12502
lthumb 15.4592 38.1961
rfemur -12.5796 -0.559829 16.3644
rtibia 33.4859
rfoot -21.5498 -14.0669
rtoes 6.13167
lfemur -15.6147 -4.95853 -18.8894
ltibia 35.3449
lfoot -21.1304 1.82254
ltoes 0.406766
33
root 1.68212 17.1628 34.1446 -175.352 -5.5464 178.803
lowerback -0.587293 -0.836703 -2.97476
upperback -4.41308 -1.32283 1.3179
thorax -4.1297 -0.606415 3.07423
lowerneck -19.5754 -1.16682 -3.10052
upperneck 23.9568 -1.46928 0.824752
head 11.0219 -1.08255 0.55235
rclavicle -3.10601e-015 -6.75868e-015
rhumerus -36.5705 -6.84679 -81.6564
rradius 29.2581
rwrist 2.95142
rhand -18.5903 -11.9713
rfingers 7.12502
rthumb 7.7006 -41.8111
lclavicle -3.10601e-015 -6.75868e-015
lhumerus -33.7046 8.1392 86.0292
lradius 25.3496
lwrist -19.9334
lhand -10.5345 8.80453
lfingers 7.12502
lthumb 15.4689 38.2056
rfemur -12.5966 -0.565323 16.3754
rtibia 33.4943
rfoot -21.5538 -14.0763
rtoes 6.15593
lfemur -15.6339 -4.95484 -18.8768
ltibia 35.3461
lfoot -21.1223 1.80252
ltoes 0.394329
34
root 1.6848 17.1629 34.1467 -175.349 -5.55032 178.802
lowerback -0.541254 -0.856617 -3.00504
upperback -4.43665 -1.35256 1.32157
thorax -4.17771 -0.619265 3.0974
lowerneck -19.5718 -1.16826 -3.10244
upperneck 23.9427 -1.47706 0.851171
head 11.0163 -1.08244 0.561204
rclavicle -1.44119e-015 3.97569e-015
rhumerus -36.5947 -6.85573 -81.6383
rradius 29.2619
rwrist 2.94702
rhand -18.5847 -11.9839
rfingers 7.12502
rthumb 7.70598 -41.8235
lclavicle -1.44119e-015 3.97569e-015
lhumerus -33.7125 8.11984 86.0248
lradius 25.3577
lwrist -19.9222
lhand -10.5295 8.81933
lfingers 7.12502
lthumb 15.4737 38.2201
rfemur -12.611 -0.568005 16.3862
rtibia 33.5017
rfoot -21.555 -14.0789
rtoes 6.17717
lfemur -15.6482 -4.9463 -18.8647
ltibia 35.3484
lfoot -21.1152 1.78823
ltoes 0.379177
35
root 1.68719 17.1629 34.1484 -175.351 -5.54023 178.804
lowerback -0.495345 -0.871338 -3.03151
upperback -4.45788 -1.37512 1.32553
thorax -4.22378 -0.628658 3.11852
lowerneck -19.5705 -1.17072 -3.10543
upperneck 23.9326 -1.48604 0.87725
head 11.0126 -1.08314 0.56989
rclavicle -2.64384e-014 -7.95139e-016
rhumerus -36.6235 -6.86249 -81.6187
rradius 29.2705
rwrist 2.9372
rhand -18.5868 -12.012
rfingers 7.12502
rthumb 7.70399 -41.8516
lclavicle -2.64384e-014 -7.95139e-016
lhumerus -33.7196 8.08866 86.0297
lradius 25.3731
lwrist -19.8959
lhand -10.5334 8.83802
lfingers 7.12502
lthumb 15.4699 38.239
rfemur -12.6207 -0.56702 16.3961
rtibia 33.5071
rfoot -21.5529 -14.0731
rtoes 6.19069
lfemur -15.6538 -4.93431 -18.854
ltibia 35.3512
lfoot -21.1104 1.78399
ltoes 0.36593
36
root 1.68917 17.1629 34.1496 -175.359 -5.51391 178.807
lowerback -0.456309 -0.880325 -3.05075
upperback -4.47247 -1.38927 1.32863
thorax -4.25977 -0.634253 3.13418
lowerneck -19.5727 -1.17487 -3.10997
upperneck 23.9237 -1.49713 0.904805
head 11.0102 -1.08472 0.579033
rclavicle 1.81391e-015 -6.75868e-015
rhumerus -36.6515 -6.8696 -81.5988
rradius 29.2815
rwrist 2.92557
rhand -18.5939 -12.0487
rfingers 7.12502
rthumb 7.69716 -41.8886
lclavicle 1.81391e-015 -6.75868e-015
lhumerus -33.7211 8.04667 86.0423
lradius 25.3957
lwrist -19.8589
lhand -10.5488 8.85901
lfingers 7.12502
lthumb 15.4551 38.2612
rfemur -12.6241 -0.561322 16.4053
rtibia 33.5097
rfoot -21.5479 -14.0569
rtoes 6.19858
lfemur -15.6482 -4.91922 -18.8445
ltibia 35.3535
lfoot -21.108 1.79314
ltoes 0.356233
37
root 1.69077 17.1628 34.1501 -175.372 -5.47533 178.814
lowerback -0.426979 -0.885192 -3.06318
upperback -4.47997 -1.39707 1.33107
thorax -4.28342 -0.637122 3.14478
lowerneck -19.5746 -1.18028 -3.11451
upperneck 23.9132 -1.50982 0.932142
head 11.0072 -1.08699 0.587871
rclavicle 1.25483e-014 -1.15295e-014
rhumerus -36.6781 -6.87519 -81.5798
rradius 29.2949
rwrist 2.90966
rhand -18.6015 -12.0765
rfingers 7.12502
rthumb 7.68982 -41.9167
lclavicle 1.25483e-014 -1.15295e-014
lhumerus -33.7161 7.99482 86.062
lradius 25.4234
lwrist -19.8126
lhand -10.5777 8.88085
lfingers 7.12502
lthumb 15.4273 38.2852
rfemur -12.6199 -0.550433 16.4148
rtibia 33.5094
rfoot -21.5416 -14.0343
rtoes 6.19887
lfemur -15.6317 -4.90591 -18.8355
ltibia 35.3554
lfoot -21.1072 1.81761
ltoes 0.343813
38
root 1.69182 17.1627 34.1497 -175.392 -5.4189 178.821
lowerback -0.410263 -0.884038 -3.06886
upperback -4.47961 -1.3959 1.33155
thorax -4.29252 -0.636043 3.14884
lowerneck -19.5752 -1.18705 -3.11962
upperneck 23.9014 -1.52461 0.960796
head 11.0035 -1.09007 0.596973
rclavicle 2.33572e-015 -1.19271e-015
rhumerus -36.7045 -6.88129 -81.5609
rradius 29.3099
rwrist 2.89422
rhand -18.6074 -12.0957
rfingers 7.12502
rthumb 7.68407 -41.9361
lclavicle 2.33572e-015 -1.19271e-015
lhumerus -33.7046 7.93355 86.0881
lradius 25.4548
lwrist -19.7587
lhand -10.6141 8.90594
lfingers 7.12502
lthumb 15.3922 38.3129
rfemur -12.6077 -0.534491 16.4209
rtibia 33.5065
rfoot -21.5328 -13.9988
rtoes 6.1953
lfemur -15.6017 -4.89203 -18.831
ltibia 35.3566
lfoot -21.1092 1.86087
ltoes 0.329988
39
root 1.6928 17.1626 34.1492 -175.412 -5.36645 178.828
lowerback -0.405648 -0.884346 -3.07237
upperback -4.47229 -1.39587 1.33131
thorax -4.28743 -0.635852 3.15052
lowerneck -19.5777 -1.19499 -3.12424
upperneck 23.8867 -1.54075 0.989513
head 10.9991 -1.09353 0.605832
rclavicle -5.24295e-015 7.15625e-015
rhumerus -36.722 -6.88955 -81.5424
rradius 29.3216
rwrist 2.88021
rhand -18.6094 -12.1079
rfingers 7.12502
rthumb 7.68216 -41.9484
lclavicle -5.24295e-015 7.15625e-015
lhumerus -33.6811 7.86544 86.12
lradius 25.4881
lwrist -19.7019
lhand -10.6594 8.93409
lfingers 7.12502
lthumb 15.3486 38.3444
rfemur -12.593 -0.518645 16.4274
rtibia 33.5021
rfoot -21.5253 -13.9663
rtoes 6.18835
lfemur -15.5711 -4.88199 -18.8264
ltibia 35.3575
lfoot -21.1118 1.90475
ltoes 0.317976
40
root 1.6937 17.1625 34.1486 -175.432 -5.31831 178.836
lowerback -0.409843 -0.885945 -3.07381
upperback -4.46084 -1.39705 1.33046
thorax -4.27295 -0.636518 3.15013
lowerneck -19.5796 -1.20414 -3.1277
upperneck 23.8702 -1.5586 1.01736
head 10.994 -1.0977 0.613935
rclavicle 1.62506e-014 -7.55382e-015
rhumerus -36.7349 -6.90106 -81.5228
rradius 29.329
rwrist 2.8706
rhand -18.6058 -12.1084
rfingers 7.12502
rthumb 7.68566 -41.9487
lclavicle 1.62506e-014 -7.55382e-015
lhumerus -33.6484 7.79337 86.1559
lradius 25.5213
lwrist -19.6444
lhand -10.7117 8.96165
lfingers 7.12502
lthumb 15.2982 38.3759
rfemur -12.5772 -0.502769 16.4345
rtibia 33.497
rfoot -21.5191 -13.9371
rtoes 6.18524
lfemur -15.5411 -4.87427 -18.8214
ltibia 35.3582
lfoot -21.1145 1.94756
ltoes 0.306241
41
root 1.69453 17.1624 34.1479 -175.449 -5.26962 178.843
lowerback -0.424651 -0.887445 -3.07426
upperback -4.44523 -1.3976 1.32863
thorax -4.24817 -0.637123 3.14783
lowerneck -19.5792 -1.21373 -3.13125
upperneck 23.8506 -1.5775 1.04725
head 10.9873 -1.10202 0.622663
rclavicle -7.95139e-015 -1.47101e-014
rhumerus -36.7412 -6.91532 -81.503
rradius 29.3314
rwrist 2.86533
rhand -18.5949 -12.0962
rfingers 7.12502
rthumb 7.69621 -41.9361
lclavicle -7.95139e-015 -1.47101e-014
lhumerus -33.6073 7.71704 86.1955
lradius 25.5561
lwrist -19.5862
lhand -10.7629 8.9952
lfingers 7.12502
lthumb 15.2489 38.4132
rfemur -12.5631 -0.48523 16.4407
rtibia 33.4922
rfoot -21.5134 -13.9076
rtoes 6.18471
lfemur -15.5129 -4.86459 -18.8172
ltibia 35.3589
lfoot -21.118 1.99034
ltoes 0.290976
42
root 1.69533 17.1622 34.1472 -175.465 -5.22136 178.849
lowerback -0.445583 -0.888841 -3.07513
upperback -4.42815 -1.39781 1.32658
thorax -4.21842 -0.637666 3.14533
lowerneck -19.5783 -1.22397 -3.13392
upperneck 23.8329 -1.5977 1.07655
head 10.9812 -1.10704 0.630812
rclavicle -8.64713e-015 9.14409e-015
rhumerus -36.7454 -6.93156 -81.4814
rradius 29.3274
rwrist 2.86615
rhand -18.5803 -12.0854
rfingers 7.12502
rthumb 7.71028 -41.9248
lclavicle -8.64713e-015 9.14409e-015
lhumerus -33.5616 7.6396 86.2379
lradius 25.5918
lwrist -19.5283
lhand -10.8158 9.02916
lfingers 7.12502
lthumb 15.1979 38.451
rfemur -12.5509 -0.468308 16.4463
rtibia 33.4877
rfoot -21.5064 -13.8788
rtoes 6.18047
lfemur -15.4866 -4.85442 -18.8136
ltibia 35.3598
lfoot -21.122 2.03143
ltoes 0.275652
